<mxfile host="app.diagrams.net" modified="2023-11-09T02:31:54.192Z" agent="Mozilla/5.0 (Windows NT 10.0; Win64; x64) AppleWebKit/537.36 (KHTML, like Gecko) Chrome/119.0.0.0 Safari/537.36" etag="zuQ3ApIrJ5syMnAwrPup" version="22.0.8" type="github">
  <diagram name="Page-1" id="B2eRvDcgT0PkUIXzlV94">
    <mxGraphModel dx="1050" dy="534" grid="1" gridSize="10" guides="1" tooltips="1" connect="1" arrows="1" fold="1" page="1" pageScale="1" pageWidth="850" pageHeight="1100" math="0" shadow="0">
      <root>
        <mxCell id="0" />
        <mxCell id="1" parent="0" />
        <mxCell id="Z9MrStJ5Hw21j5dezeoS-1" value="country" style="rounded=0;whiteSpace=wrap;html=1;" vertex="1" parent="1">
          <mxGeometry x="30" y="140" width="100" height="20" as="geometry" />
        </mxCell>
        <mxCell id="Z9MrStJ5Hw21j5dezeoS-2" value="MEX" style="rounded=0;whiteSpace=wrap;html=1;" vertex="1" parent="1">
          <mxGeometry x="30" y="160" width="100" height="20" as="geometry" />
        </mxCell>
        <mxCell id="Z9MrStJ5Hw21j5dezeoS-3" value="sourceName" style="rounded=0;whiteSpace=wrap;html=1;" vertex="1" parent="1">
          <mxGeometry x="130" y="140" width="100" height="20" as="geometry" />
        </mxCell>
        <mxCell id="Z9MrStJ5Hw21j5dezeoS-4" value="SAP" style="rounded=0;whiteSpace=wrap;html=1;" vertex="1" parent="1">
          <mxGeometry x="130" y="160" width="100" height="20" as="geometry" />
        </mxCell>
        <mxCell id="Z9MrStJ5Hw21j5dezeoS-5" value="division" style="rounded=0;whiteSpace=wrap;html=1;" vertex="1" parent="1">
          <mxGeometry x="230" y="140" width="100" height="20" as="geometry" />
        </mxCell>
        <mxCell id="Z9MrStJ5Hw21j5dezeoS-6" value="PPD" style="rounded=0;whiteSpace=wrap;html=1;" vertex="1" parent="1">
          <mxGeometry x="230" y="160" width="100" height="20" as="geometry" />
        </mxCell>
        <mxCell id="Z9MrStJ5Hw21j5dezeoS-7" value="MEX" style="rounded=0;whiteSpace=wrap;html=1;" vertex="1" parent="1">
          <mxGeometry x="30" y="180" width="100" height="20" as="geometry" />
        </mxCell>
        <mxCell id="Z9MrStJ5Hw21j5dezeoS-8" value="LPS" style="rounded=0;whiteSpace=wrap;html=1;" vertex="1" parent="1">
          <mxGeometry x="130" y="180" width="100" height="20" as="geometry" />
        </mxCell>
        <mxCell id="Z9MrStJ5Hw21j5dezeoS-9" value="PPD" style="rounded=0;whiteSpace=wrap;html=1;" vertex="1" parent="1">
          <mxGeometry x="230" y="180" width="100" height="20" as="geometry" />
        </mxCell>
        <mxCell id="Z9MrStJ5Hw21j5dezeoS-10" value="&lt;p class=&quot;MsoNormal&quot;&gt;-&amp;nbsp;&amp;nbsp;&amp;nbsp;&amp;nbsp;&amp;nbsp;&amp;nbsp;&amp;nbsp;&amp;nbsp;&amp;nbsp;&amp;nbsp;&amp;nbsp;&amp;nbsp;&amp;nbsp;&lt;br&gt;SAP maintain records at SKU (unique record)&lt;/p&gt;&lt;span style=&quot;background-color: initial;&quot;&gt;LPS maintains records at EAN (unique record).&lt;/span&gt;&lt;span style=&quot;background-color: initial;&quot;&gt;&lt;br&gt;&lt;/span&gt;&lt;p class=&quot;MsoNormal&quot;&gt;One EAN can be related to multiple SKU&lt;span style=&quot;background-color: initial;&quot;&gt;&amp;nbsp; &amp;nbsp; &amp;nbsp; &amp;nbsp; &amp;nbsp; &amp;nbsp; &amp;nbsp; &amp;nbsp; &amp;nbsp; &amp;nbsp; &amp;nbsp; &amp;nbsp; &amp;nbsp; &amp;nbsp;&lt;/span&gt;&lt;/p&gt;&lt;p class=&quot;MsoNormal&quot;&gt;Populate LPS order data into all matching SKU products from SAP&lt;/p&gt;" style="text;whiteSpace=wrap;html=1;" vertex="1" parent="1">
          <mxGeometry x="40" y="530" width="390" height="150" as="geometry" />
        </mxCell>
        <mxCell id="Z9MrStJ5Hw21j5dezeoS-13" value="sourceProductId" style="rounded=0;whiteSpace=wrap;html=1;" vertex="1" parent="1">
          <mxGeometry x="330" y="140" width="100" height="20" as="geometry" />
        </mxCell>
        <mxCell id="Z9MrStJ5Hw21j5dezeoS-14" value="sp1234" style="rounded=0;whiteSpace=wrap;html=1;" vertex="1" parent="1">
          <mxGeometry x="330" y="160" width="100" height="20" as="geometry" />
        </mxCell>
        <mxCell id="Z9MrStJ5Hw21j5dezeoS-15" value="eanCode" style="rounded=0;whiteSpace=wrap;html=1;" vertex="1" parent="1">
          <mxGeometry x="430" y="140" width="100" height="20" as="geometry" />
        </mxCell>
        <mxCell id="Z9MrStJ5Hw21j5dezeoS-16" value="ean123" style="rounded=0;whiteSpace=wrap;html=1;" vertex="1" parent="1">
          <mxGeometry x="430" y="160" width="100" height="20" as="geometry" />
        </mxCell>
        <mxCell id="Z9MrStJ5Hw21j5dezeoS-17" value="skuCode" style="rounded=0;whiteSpace=wrap;html=1;" vertex="1" parent="1">
          <mxGeometry x="530" y="140" width="100" height="20" as="geometry" />
        </mxCell>
        <mxCell id="Z9MrStJ5Hw21j5dezeoS-18" value="sku123" style="rounded=0;whiteSpace=wrap;html=1;" vertex="1" parent="1">
          <mxGeometry x="530" y="160" width="100" height="20" as="geometry" />
        </mxCell>
        <mxCell id="Z9MrStJ5Hw21j5dezeoS-19" value="lp1234" style="rounded=0;whiteSpace=wrap;html=1;" vertex="1" parent="1">
          <mxGeometry x="330" y="180" width="100" height="20" as="geometry" />
        </mxCell>
        <mxCell id="Z9MrStJ5Hw21j5dezeoS-20" value="ean123" style="rounded=0;whiteSpace=wrap;html=1;" vertex="1" parent="1">
          <mxGeometry x="430" y="180" width="100" height="20" as="geometry" />
        </mxCell>
        <mxCell id="Z9MrStJ5Hw21j5dezeoS-21" value="sku456" style="rounded=0;whiteSpace=wrap;html=1;" vertex="1" parent="1">
          <mxGeometry x="530" y="180" width="100" height="20" as="geometry" />
        </mxCell>
        <mxCell id="Z9MrStJ5Hw21j5dezeoS-22" value="country" style="rounded=0;whiteSpace=wrap;html=1;" vertex="1" parent="1">
          <mxGeometry x="40" y="340" width="100" height="20" as="geometry" />
        </mxCell>
        <mxCell id="Z9MrStJ5Hw21j5dezeoS-24" value="sourceName" style="rounded=0;whiteSpace=wrap;html=1;" vertex="1" parent="1">
          <mxGeometry x="140" y="340" width="100" height="20" as="geometry" />
        </mxCell>
        <mxCell id="Z9MrStJ5Hw21j5dezeoS-26" value="division" style="rounded=0;whiteSpace=wrap;html=1;" vertex="1" parent="1">
          <mxGeometry x="240" y="340" width="100" height="20" as="geometry" />
        </mxCell>
        <mxCell id="Z9MrStJ5Hw21j5dezeoS-28" value="" style="rounded=0;whiteSpace=wrap;html=1;" vertex="1" parent="1">
          <mxGeometry x="40" y="380" width="100" height="20" as="geometry" />
        </mxCell>
        <mxCell id="Z9MrStJ5Hw21j5dezeoS-29" value="" style="rounded=0;whiteSpace=wrap;html=1;" vertex="1" parent="1">
          <mxGeometry x="140" y="380" width="100" height="20" as="geometry" />
        </mxCell>
        <mxCell id="Z9MrStJ5Hw21j5dezeoS-30" value="" style="rounded=0;whiteSpace=wrap;html=1;" vertex="1" parent="1">
          <mxGeometry x="240" y="380" width="100" height="20" as="geometry" />
        </mxCell>
        <mxCell id="Z9MrStJ5Hw21j5dezeoS-31" value="sourceProductId" style="rounded=0;whiteSpace=wrap;html=1;" vertex="1" parent="1">
          <mxGeometry x="340" y="340" width="100" height="20" as="geometry" />
        </mxCell>
        <mxCell id="Z9MrStJ5Hw21j5dezeoS-33" value="eanCode" style="rounded=0;whiteSpace=wrap;html=1;" vertex="1" parent="1">
          <mxGeometry x="440" y="340" width="100" height="20" as="geometry" />
        </mxCell>
        <mxCell id="Z9MrStJ5Hw21j5dezeoS-35" value="skuCode" style="rounded=0;whiteSpace=wrap;html=1;" vertex="1" parent="1">
          <mxGeometry x="540" y="340" width="100" height="20" as="geometry" />
        </mxCell>
        <mxCell id="Z9MrStJ5Hw21j5dezeoS-37" value="" style="rounded=0;whiteSpace=wrap;html=1;" vertex="1" parent="1">
          <mxGeometry x="340" y="380" width="100" height="20" as="geometry" />
        </mxCell>
        <mxCell id="Z9MrStJ5Hw21j5dezeoS-38" value="" style="rounded=0;whiteSpace=wrap;html=1;" vertex="1" parent="1">
          <mxGeometry x="440" y="380" width="100" height="20" as="geometry" />
        </mxCell>
        <mxCell id="Z9MrStJ5Hw21j5dezeoS-39" value="" style="rounded=0;whiteSpace=wrap;html=1;" vertex="1" parent="1">
          <mxGeometry x="540" y="380" width="100" height="20" as="geometry" />
        </mxCell>
        <mxCell id="Z9MrStJ5Hw21j5dezeoS-40" value="country" style="rounded=0;whiteSpace=wrap;html=1;" vertex="1" parent="1">
          <mxGeometry x="40" y="460" width="100" height="20" as="geometry" />
        </mxCell>
        <mxCell id="Z9MrStJ5Hw21j5dezeoS-41" value="MEX" style="rounded=0;whiteSpace=wrap;html=1;" vertex="1" parent="1">
          <mxGeometry x="40" y="480" width="100" height="20" as="geometry" />
        </mxCell>
        <mxCell id="Z9MrStJ5Hw21j5dezeoS-42" value="sourceName" style="rounded=0;whiteSpace=wrap;html=1;" vertex="1" parent="1">
          <mxGeometry x="140" y="460" width="100" height="20" as="geometry" />
        </mxCell>
        <mxCell id="Z9MrStJ5Hw21j5dezeoS-43" value="SAP" style="rounded=0;whiteSpace=wrap;html=1;" vertex="1" parent="1">
          <mxGeometry x="140" y="480" width="100" height="20" as="geometry" />
        </mxCell>
        <mxCell id="Z9MrStJ5Hw21j5dezeoS-44" value="division" style="rounded=0;whiteSpace=wrap;html=1;" vertex="1" parent="1">
          <mxGeometry x="240" y="460" width="100" height="20" as="geometry" />
        </mxCell>
        <mxCell id="Z9MrStJ5Hw21j5dezeoS-45" value="PPD" style="rounded=0;whiteSpace=wrap;html=1;" vertex="1" parent="1">
          <mxGeometry x="240" y="480" width="100" height="20" as="geometry" />
        </mxCell>
        <mxCell id="Z9MrStJ5Hw21j5dezeoS-46" value="" style="rounded=0;whiteSpace=wrap;html=1;" vertex="1" parent="1">
          <mxGeometry x="40" y="500" width="100" height="20" as="geometry" />
        </mxCell>
        <mxCell id="Z9MrStJ5Hw21j5dezeoS-47" value="" style="rounded=0;whiteSpace=wrap;html=1;" vertex="1" parent="1">
          <mxGeometry x="140" y="500" width="100" height="20" as="geometry" />
        </mxCell>
        <mxCell id="Z9MrStJ5Hw21j5dezeoS-48" value="" style="rounded=0;whiteSpace=wrap;html=1;" vertex="1" parent="1">
          <mxGeometry x="240" y="500" width="100" height="20" as="geometry" />
        </mxCell>
        <mxCell id="Z9MrStJ5Hw21j5dezeoS-49" value="sourceProductId" style="rounded=0;whiteSpace=wrap;html=1;" vertex="1" parent="1">
          <mxGeometry x="340" y="460" width="100" height="20" as="geometry" />
        </mxCell>
        <mxCell id="Z9MrStJ5Hw21j5dezeoS-50" value="sp1234" style="rounded=0;whiteSpace=wrap;html=1;" vertex="1" parent="1">
          <mxGeometry x="340" y="480" width="100" height="20" as="geometry" />
        </mxCell>
        <mxCell id="Z9MrStJ5Hw21j5dezeoS-51" value="" style="rounded=0;whiteSpace=wrap;html=1;" vertex="1" parent="1">
          <mxGeometry x="340" y="500" width="100" height="20" as="geometry" />
        </mxCell>
        <mxCell id="Z9MrStJ5Hw21j5dezeoS-53" value="bronze.product_realtime" style="text;html=1;strokeColor=none;fillColor=none;align=center;verticalAlign=middle;whiteSpace=wrap;rounded=0;" vertex="1" parent="1">
          <mxGeometry x="250" y="100" width="60" height="30" as="geometry" />
        </mxCell>
        <mxCell id="Z9MrStJ5Hw21j5dezeoS-54" value="" style="shape=flexArrow;endArrow=classic;html=1;rounded=0;exitX=0.5;exitY=1;exitDx=0;exitDy=0;" edge="1" parent="1">
          <mxGeometry width="50" height="50" relative="1" as="geometry">
            <mxPoint x="300" y="230" as="sourcePoint" />
            <mxPoint x="300" y="320" as="targetPoint" />
          </mxGeometry>
        </mxCell>
        <mxCell id="Z9MrStJ5Hw21j5dezeoS-56" value="MEX" style="rounded=0;whiteSpace=wrap;html=1;" vertex="1" parent="1">
          <mxGeometry x="40" y="360" width="100" height="20" as="geometry" />
        </mxCell>
        <mxCell id="Z9MrStJ5Hw21j5dezeoS-57" value="SAP" style="rounded=0;whiteSpace=wrap;html=1;" vertex="1" parent="1">
          <mxGeometry x="140" y="360" width="100" height="20" as="geometry" />
        </mxCell>
        <mxCell id="Z9MrStJ5Hw21j5dezeoS-58" value="PPD" style="rounded=0;whiteSpace=wrap;html=1;" vertex="1" parent="1">
          <mxGeometry x="240" y="360" width="100" height="20" as="geometry" />
        </mxCell>
        <mxCell id="Z9MrStJ5Hw21j5dezeoS-59" value="sp1234" style="rounded=0;whiteSpace=wrap;html=1;" vertex="1" parent="1">
          <mxGeometry x="340" y="360" width="100" height="20" as="geometry" />
        </mxCell>
        <mxCell id="Z9MrStJ5Hw21j5dezeoS-60" value="ean123" style="rounded=0;whiteSpace=wrap;html=1;" vertex="1" parent="1">
          <mxGeometry x="440" y="360" width="100" height="20" as="geometry" />
        </mxCell>
        <mxCell id="Z9MrStJ5Hw21j5dezeoS-61" value="sku123" style="rounded=0;whiteSpace=wrap;html=1;" vertex="1" parent="1">
          <mxGeometry x="540" y="360" width="100" height="20" as="geometry" />
        </mxCell>
        <mxCell id="Z9MrStJ5Hw21j5dezeoS-62" value="dedupe by country, sourceName, division, sourceProductId, eanCode, skuCode&lt;br&gt;Load data with SAP record but populate fields listed in sheet-1 with&amp;nbsp;" style="text;html=1;strokeColor=none;fillColor=none;align=center;verticalAlign=middle;whiteSpace=wrap;rounded=0;" vertex="1" parent="1">
          <mxGeometry x="310" y="240" width="470" height="30" as="geometry" />
        </mxCell>
        <mxCell id="Z9MrStJ5Hw21j5dezeoS-64" value="silver.dim_product_master_b2b" style="text;html=1;strokeColor=none;fillColor=none;align=center;verticalAlign=middle;whiteSpace=wrap;rounded=0;" vertex="1" parent="1">
          <mxGeometry x="110" y="310" width="60" height="30" as="geometry" />
        </mxCell>
        <mxCell id="Z9MrStJ5Hw21j5dezeoS-65" value="silver.dim_product_hierarchy_b2b" style="text;html=1;strokeColor=none;fillColor=none;align=center;verticalAlign=middle;whiteSpace=wrap;rounded=0;" vertex="1" parent="1">
          <mxGeometry x="90" y="420" width="60" height="30" as="geometry" />
        </mxCell>
      </root>
    </mxGraphModel>
  </diagram>
</mxfile>
